<svg width="1230" height="200" viewBox="0 0 1230 200" fill="none" xmlns="http://www.w3.org/2000/svg">
<path d="M624.862 163.399H599.045L657.054 2.20385H685.153L743.161 163.399H717.345L671.772 31.4835H670.513L624.862 163.399ZM629.191 100.275H712.937V120.739H629.191V100.275Z" fill="black"/>
<path d="M852.367 2.20385H876.767V108.225C876.767 119.506 874.117 129.502 868.817 138.213C863.518 146.871 856.067 153.692 846.464 158.677C836.862 163.609 825.606 166.076 812.698 166.076C799.842 166.076 788.613 163.609 779.011 158.677C769.408 153.692 761.957 146.871 756.657 138.213C751.358 129.502 748.708 119.506 748.708 108.225V2.20385H773.029V106.257C773.029 113.551 774.629 120.031 777.83 125.698C781.083 131.365 785.675 135.825 791.604 139.078C797.534 142.279 804.565 143.88 812.698 143.88C820.884 143.88 827.941 142.279 833.871 139.078C839.853 135.825 844.418 131.365 847.566 125.698C850.767 120.031 852.367 113.551 852.367 106.257V2.20385Z" fill="black"/>
<path d="M948.796 163.399H896.612V2.20385H950.449C966.243 2.20385 979.807 5.43091 991.141 11.885C1002.48 18.2867 1011.16 27.4956 1017.19 39.5118C1023.28 51.4755 1026.32 65.8268 1026.32 82.5655C1026.32 99.3567 1023.25 113.787 1017.12 125.855C1011.03 137.924 1002.21 147.212 990.669 153.718C979.125 160.172 965.167 163.399 948.796 163.399ZM920.933 142.148H947.458C959.736 142.148 969.942 139.839 978.075 135.222C986.209 130.552 992.296 123.809 996.336 114.994C1000.38 106.126 1002.4 95.3164 1002.4 82.5655C1002.4 69.9196 1000.38 59.189 996.336 50.3736C992.348 41.5582 986.392 34.868 978.469 30.3029C970.546 25.7378 960.707 23.4552 948.953 23.4552H920.933V142.148Z" fill="black"/>
<path d="M1067.59 2.20385V163.399H1043.27V2.20385H1067.59Z" fill="black"/>
<path d="M1229.73 82.8016C1229.73 100.013 1226.59 114.81 1220.29 127.193C1213.99 139.524 1205.36 149.022 1194.39 155.686C1183.48 162.298 1171.07 165.603 1157.16 165.603C1143.21 165.603 1130.74 162.298 1119.78 155.686C1108.86 149.022 1100.26 139.498 1093.96 127.115C1087.66 114.731 1084.52 99.9602 1084.52 82.8016C1084.52 65.5907 1087.66 50.8196 1093.96 38.4886C1100.26 26.1051 1108.86 16.6076 1119.78 9.99601C1130.74 3.332 1143.21 0 1157.16 0C1171.07 0 1183.48 3.332 1194.39 9.99601C1205.36 16.6076 1213.99 26.1051 1220.29 38.4886C1226.59 50.8196 1229.73 65.5907 1229.73 82.8016ZM1205.65 82.8016C1205.65 69.6835 1203.52 58.638 1199.27 49.6652C1195.08 40.64 1189.3 33.8185 1181.96 29.201C1174.66 24.5309 1166.4 22.1959 1157.16 22.1959C1147.88 22.1959 1139.59 24.5309 1132.29 29.201C1125 33.8185 1119.23 40.64 1114.98 49.6652C1110.78 58.638 1108.68 69.6835 1108.68 82.8016C1108.68 95.9198 1110.78 106.991 1114.98 116.017C1119.23 124.99 1125 131.811 1132.29 136.481C1139.59 141.099 1147.88 143.407 1157.16 143.407C1166.4 143.407 1174.66 141.099 1181.96 136.481C1189.3 131.811 1195.08 124.99 1199.27 116.017C1203.52 106.991 1205.65 95.9198 1205.65 82.8016Z" fill="black"/>
<path d="M547.13 1.99738H535.478H442.353H419.085H401.561C398.379 1.99738 395.799 4.57702 395.799 7.75918V83.5368V118.477V200L442.353 165.059V83.5368V19.4004C442.353 16.2182 444.933 13.6386 448.115 13.6386H529.716C532.899 13.6386 535.478 16.2182 535.478 19.4004V104.712L454.005 60.2374L582.049 165.059V141.777V130.119V7.75918C582.049 4.57702 579.47 1.99738 576.288 1.99738H547.13Z" fill="black"/>
<path d="M139.707 1.99945H50.4087C47.914 1.99945 45.4867 2.80903 43.4914 4.30656L0.0113406 36.9401L0 165.045H46.554L46.5649 19.402C46.5651 16.2201 49.1447 13.6407 52.3267 13.6407H133.945C137.128 13.6407 139.707 16.2203 139.707 19.4025V153.467L186.261 118.526V7.76125C186.261 4.57909 183.682 1.99945 180.499 1.99945H162.976H139.707Z" fill="black"/>
<path d="M337.595 1.99738H248.312C245.818 1.99738 243.392 2.80651 241.397 4.30327L197.899 36.938V130.119V153.418V165.059L325.961 60.2374L244.47 104.712V19.4004C244.47 16.2182 247.05 13.6386 250.232 13.6386H331.833C335.015 13.6386 337.595 16.2182 337.595 19.4004V120.671L384.149 85.7301V7.75919C384.149 4.57703 381.569 1.99738 378.387 1.99738H360.881H337.595Z" fill="black"/>
</svg>
